<svg width="35" height="35" viewBox="0 0 35 35" fill="none" xmlns="http://www.w3.org/2000/svg">
<path d="M17.5075 7.93564C20.6265 7.93564 20.9959 7.94932 22.2225 8.00404C23.3625 8.0542 23.9781 8.24572 24.3885 8.40531C24.9311 8.61507 25.3233 8.87043 25.7291 9.27627C26.1395 9.68666 26.3903 10.0743 26.6001 10.6169C26.7597 11.0273 26.9512 11.6474 27.0013 12.7829C27.0561 14.0141 27.0697 14.3834 27.0697 17.4979C27.0697 20.6169 27.0561 20.9862 27.0013 22.2129C26.9512 23.3529 26.7597 23.9685 26.6001 24.3789C26.3903 24.9215 26.1349 25.3137 25.7291 25.7195C25.3187 26.1299 24.9311 26.3807 24.3885 26.5904C23.9781 26.75 23.3579 26.9416 22.2225 26.9917C20.9913 27.0464 20.6219 27.0601 17.5075 27.0601C14.3885 27.0601 14.0191 27.0464 12.7925 26.9917C11.6525 26.9416 11.0369 26.75 10.6265 26.5904C10.0839 26.3807 9.69171 26.1253 9.28588 25.7195C8.87548 25.3091 8.62468 24.9215 8.41492 24.3789C8.25532 23.9685 8.06381 23.3483 8.01365 22.2129C7.95893 20.9817 7.94525 20.6123 7.94525 17.4979C7.94525 14.3789 7.95893 14.0095 8.01365 12.7829C8.06381 11.6429 8.25532 11.0273 8.41492 10.6169C8.62468 10.0743 8.88004 9.6821 9.28588 9.27627C9.69627 8.86587 10.0839 8.61507 10.6265 8.40531C11.0369 8.24572 11.6571 8.0542 12.7925 8.00404C14.0191 7.94932 14.3885 7.93564 17.5075 7.93564ZM17.5075 5.8335C14.3383 5.8335 13.9416 5.84718 12.6967 5.9019C11.4564 5.95662 10.6037 6.15725 9.86499 6.44453C9.09436 6.74549 8.44228 7.1422 7.79477 7.79428C7.14269 8.44179 6.74598 9.09387 6.44502 9.85994C6.15774 10.6032 5.9571 11.4514 5.90238 12.6917C5.84766 13.9411 5.83398 14.3378 5.83398 17.507C5.83398 20.6762 5.84766 21.0729 5.90238 22.3178C5.9571 23.5581 6.15774 24.4108 6.44502 25.1495C6.74598 25.9201 7.14269 26.5722 7.79477 27.2197C8.44228 27.8672 9.09436 28.2685 9.86043 28.5649C10.6037 28.8522 11.4519 29.0528 12.6922 29.1075C13.937 29.1623 14.3338 29.1759 17.5029 29.1759C20.6721 29.1759 21.0688 29.1623 22.3137 29.1075C23.554 29.0528 24.4067 28.8522 25.1454 28.5649C25.9115 28.2685 26.5636 27.8672 27.2111 27.2197C27.8586 26.5722 28.2599 25.9201 28.5563 25.1541C28.8436 24.4108 29.0442 23.5626 29.0989 22.3223C29.1536 21.0774 29.1673 20.6807 29.1673 17.5116C29.1673 14.3424 29.1536 13.9457 29.0989 12.7008C29.0442 11.4605 28.8436 10.6078 28.5563 9.86906C28.269 9.09387 27.8723 8.44179 27.2202 7.79428C26.5727 7.14676 25.9206 6.74549 25.1545 6.44909C24.4113 6.16181 23.5631 5.96118 22.3228 5.90646C21.0734 5.84718 20.6767 5.8335 17.5075 5.8335Z" fill="white"/>
<path d="M17.5081 11.5107C14.1975 11.5107 11.5117 14.1966 11.5117 17.5071C11.5117 20.8176 14.1975 23.5034 17.5081 23.5034C20.8186 23.5034 23.5044 20.8176 23.5044 17.5071C23.5044 14.1966 20.8186 11.5107 17.5081 11.5107ZM17.5081 21.3967C15.3603 21.3967 13.6184 19.6548 13.6184 17.5071C13.6184 15.3594 15.3603 13.6174 17.5081 13.6174C19.6558 13.6174 21.3977 15.3594 21.3977 17.5071C21.3977 19.6548 19.6558 21.3967 17.5081 21.3967Z" fill="white"/>
<path d="M25.1416 11.2734C25.1416 12.0486 24.5123 12.6734 23.7417 12.6734C22.9665 12.6734 22.3418 12.0441 22.3418 11.2734C22.3418 10.4983 22.9711 9.87354 23.7417 9.87354C24.5123 9.87354 25.1416 10.5028 25.1416 11.2734Z" fill="white"/>
</svg>
