<svg width="35" height="35" viewBox="0 0 35 35" fill="none" xmlns="http://www.w3.org/2000/svg">
<path fill-rule="evenodd" clip-rule="evenodd" d="M29.1673 17.5002C29.1673 23.9435 23.944 29.1668 17.5006 29.1668C11.0573 29.1668 5.83398 23.9435 5.83398 17.5002C5.83398 11.0568 11.0573 5.8335 17.5006 5.8335C23.944 5.8335 29.1673 11.0568 29.1673 17.5002ZM17.9179 14.4465C16.7831 14.9184 14.5152 15.8953 11.1142 17.3771C10.5619 17.5967 10.2726 17.8116 10.2462 18.0217C10.2017 18.3767 10.6463 18.5165 11.2518 18.7069C11.3342 18.7328 11.4195 18.7597 11.507 18.7881C12.1027 18.9817 12.904 19.2083 13.3205 19.2173C13.6984 19.2254 14.1201 19.0696 14.5857 18.7499C17.7634 16.6049 19.4038 15.5207 19.5068 15.4973C19.5794 15.4808 19.6801 15.4601 19.7483 15.5207C19.8166 15.5813 19.8099 15.6961 19.8026 15.727C19.7586 15.9147 18.0133 17.5373 17.1101 18.377C16.8285 18.6388 16.6288 18.8245 16.5879 18.8669C16.4965 18.9619 16.4033 19.0517 16.3137 19.1381C15.7603 19.6716 15.3453 20.0716 16.3367 20.7249C16.8131 21.0389 17.1943 21.2985 17.5746 21.5575C17.99 21.8403 18.4043 22.1225 18.9403 22.4738C19.0768 22.5634 19.2073 22.6563 19.3343 22.7469C19.8177 23.0915 20.2519 23.4011 20.7884 23.3517C21.1002 23.323 21.4222 23.0299 21.5858 22.1556C21.9722 20.0894 22.732 15.6127 22.9075 13.7679C22.9229 13.6063 22.9036 13.3994 22.888 13.3086C22.8725 13.2178 22.84 13.0884 22.722 12.9927C22.5822 12.8792 22.3664 12.8553 22.2699 12.857C21.8311 12.8648 21.1579 13.0989 17.9179 14.4465Z" fill="white"/>
</svg>
