<svg width="36" height="36" viewBox="0 0 36 36" fill="none" xmlns="http://www.w3.org/2000/svg">
<path fill-rule="evenodd" clip-rule="evenodd" d="M23.6923 17.3461C23.6923 21.6794 20.1794 25.1922 15.8461 25.1922C11.5128 25.1922 8 21.6794 8 17.3461C8 13.0128 11.5128 9.5 15.8461 9.5C20.1794 9.5 23.6923 13.0128 23.6923 17.3461ZM22.8873 24.2286C21.0996 26.0572 18.6054 27.1922 15.8461 27.1922C10.4083 27.1922 6 22.784 6 17.3461C6 11.9083 10.4083 7.5 15.8461 7.5C21.284 7.5 25.6923 11.9083 25.6923 17.3461C25.6923 19.3049 25.1203 21.1301 24.1342 22.6638L29.1054 26.3922C29.5473 26.7236 29.6368 27.3504 29.3054 27.7922C28.9741 28.2341 28.3473 28.3236 27.9054 27.9922L22.8873 24.2286Z" fill="white"/>
</svg>
